<?xml version="1.0" encoding="utf-8"?>
<!-- Generator: Adobe Illustrator 21.1.0, SVG Export Plug-In . SVG Version: 6.00 Build 0)  -->
<svg version="1.1" id="Capa_1" xmlns="http://www.w3.org/2000/svg" xmlns:xlink="http://www.w3.org/1999/xlink" x="0px" y="0px"
	 viewBox="0 0 37 36.7" style="enable-background:new 0 0 37 36.7;" xml:space="preserve">
<style type="text/css">
	.st0{fill:#FFFFFF;}
</style>
<title>Group 11</title>
<desc>Created with Sketch.</desc>
<g id="Page-1">
	<g id="Dev-Test-1" transform="translate(-395.000000, -1278.000000)">
		<g id="Stacked-Group" transform="translate(290.000000, 1255.000000)">
			<g id="Group-16">
				<g id="Group-11" transform="translate(106.000000, 24.000000)">
					<g id="Group-5">
						<g id="Stroke-1">
							<path class="st0" d="M5.1,35.5v-5.6H-1V4.3h31.7v25.6H12.5L5.1,35.5z M1,27.9h6.1v3.6l4.8-3.6h16.8V6.3H1V27.9z"/>
						</g>
						<g id="Stroke-3">
							<polygon class="st0" points="36,22.3 29.7,22.3 29.7,20.3 34,20.3 34,1 8.6,1 8.6,5.3 6.6,5.3 6.6,-1 36,-1 							"/>
						</g>
					</g>
					<g id="Stroke-6">
						<rect x="3" y="10.4" class="st0" width="23.6" height="2"/>
					</g>
					<g id="Stroke-7">
						<rect x="3" y="15.7" class="st0" width="23.6" height="2"/>
					</g>
					<g id="Stroke-8">
						<rect x="6.8" y="21.1" class="st0" width="16" height="2"/>
					</g>
				</g>
			</g>
		</g>
	</g>
</g>
</svg>
